<svg xmlns="http://www.w3.org/2000/svg" viewBox="0 0 500 500"><g id="freepik--background-complete--inject-4"><polygon points="213.68 321.72 212.76 327.35 211.78 333.4 202.78 388.57 188.07 388.57 197.06 333.4 198.05 327.35 198.97 321.72 213.68 321.72" style="fill:#ebebeb"></polygon><path d="M211.55,321.72c-.78,5.59-1.61,11.17-2.45,16.74l-2.6,16.73-2.72,16.7-1.4,8.34-1.46,8.34,1.2-8.38,1.25-8.37L206,355.1l2.72-16.7C209.61,332.83,210.55,327.27,211.55,321.72Z" style="fill:#c7c7c7"></path><polygon points="212.76 327.35 211.78 333.4 197.06 333.4 198.05 327.35 212.76 327.35" style="fill:#c7c7c7"></polygon><polygon points="286.32 321.72 287.24 327.35 288.22 333.4 297.22 388.57 311.93 388.57 302.94 333.4 301.95 327.35 301.03 321.72 286.32 321.72" style="fill:#ebebeb"></polygon><path d="M288.5,321.72c.77,5.59,1.61,11.17,2.45,16.74l2.59,16.73,2.72,16.7,1.41,8.34,1.46,8.34-1.2-8.38-1.25-8.37-2.6-16.72-2.72-16.7C290.43,332.83,289.49,327.27,288.5,321.72Z" style="fill:#c7c7c7"></path><polygon points="287.24 327.35 301.95 327.35 302.94 333.4 288.22 333.4 287.24 327.35" style="fill:#c7c7c7"></polygon><polygon points="213.14 306.2 201.48 306.2 202.93 295.32 211.69 295.32 213.14 306.2" style="fill:#c7c7c7"></polygon><circle cx="207.31" cy="287.55" r="10.87" transform="translate(-111.89 441.74) rotate(-79.99)" style="fill:#dbdbdb"></circle><circle cx="207.31" cy="287.55" r="8.27" transform="translate(-120.29 422.98) rotate(-76.67)" style="fill:#fff"></circle><path d="M214.22,287.07a7.18,7.18,0,0,0-2.7-5.07,7.29,7.29,0,0,0-5.56-1.45,7,7,0,0,0-4.78,3.1,7.33,7.33,0,0,0-.87,6,6.86,6.86,0,0,0,3.23,4.09,7.2,7.2,0,0,0,5.06.78,7.47,7.47,0,0,0,4.24-2.6,7.88,7.88,0,0,0,1.75-4.61c0-.07,0-.14-.07-.14s-.07.06-.07.14a7.47,7.47,0,0,1-.39,2,8.45,8.45,0,0,1-.91,1.8,8.66,8.66,0,0,1-1.36,1.48,8.5,8.5,0,0,1-1.71,1.11,7,7,0,0,1-5.65.14,6.78,6.78,0,0,1-3.82-4.2,7,7,0,0,1,.72-5.79,6.72,6.72,0,0,1,4.65-3.06,7.21,7.21,0,0,1,6.85,2.73,7.49,7.49,0,0,1,.92,1.72,8.25,8.25,0,0,1,.44,1.92s0,0,0,0S214.22,287.1,214.22,287.07Z" style="fill:#ebebeb"></path><path d="M213.25,287.08a6.16,6.16,0,0,0-2.34-4.33,6.37,6.37,0,0,0-4.75-1.26,6,6,0,0,0-4.13,2.64,6.32,6.32,0,0,0-.8,5.16,5.87,5.87,0,0,0,2.8,3.57,6.15,6.15,0,0,0,4.41.66,6.44,6.44,0,0,0,3.67-2.27,6.85,6.85,0,0,0,1.51-4c0-.06,0-.12-.06-.12s-.08.05-.08.12a6.59,6.59,0,0,1-3.78,5.51,5.93,5.93,0,0,1-4.88.14,5.84,5.84,0,0,1-3.3-3.64,6,6,0,0,1,.66-5,5.68,5.68,0,0,1,4-2.58A6.23,6.23,0,0,1,212,284a6.68,6.68,0,0,1,.8,1.46,8,8,0,0,1,.39,1.64s0,0,0,0A0,0,0,0,0,213.25,287.08Z" style="fill:#ebebeb"></path><path d="M212.28,287.09a5.2,5.2,0,0,0-2-3.59,5.4,5.4,0,0,0-3.94-1.06,5,5,0,0,0-3.49,2.16,5.33,5.33,0,0,0-.73,4.37,4.93,4.93,0,0,0,2.37,3.06,5.3,5.3,0,0,0,3.77.54,5.46,5.46,0,0,0,3.1-2,6,6,0,0,0,1.28-3.37c0-.06,0-.11-.07-.11a.09.09,0,0,0-.08.1,5.64,5.64,0,0,1-3.18,4.64,5,5,0,0,1-4.12.14,4.85,4.85,0,0,1-2.79-3.08,5.08,5.08,0,0,1,.6-4.19,4.76,4.76,0,0,1,3.37-2.1,5.79,5.79,0,0,1,2.66.31,5,5,0,0,1,2.17,1.6,5.24,5.24,0,0,1,.68,1.2,6.17,6.17,0,0,1,.35,1.36l0,0S212.29,287.1,212.28,287.09Z" style="fill:#ebebeb"></path><path d="M211.32,287.1a4.32,4.32,0,0,0-1.63-2.85,4.44,4.44,0,0,0-3.13-.86,4.07,4.07,0,0,0-2.85,1.69,4.39,4.39,0,0,0-.66,3.57,4,4,0,0,0,1.95,2.54,4.37,4.37,0,0,0,3.12.43,4.55,4.55,0,0,0,2.53-1.64,5,5,0,0,0,1-2.76.08.08,0,0,0-.07-.09s-.07,0-.08.08A4.67,4.67,0,0,1,209,291a4,4,0,0,1-3.36.16,3.91,3.91,0,0,1-2.27-2.54,4.08,4.08,0,0,1,.54-3.38,3.8,3.8,0,0,1,2.72-1.63,4.89,4.89,0,0,1,2.1.27,4.07,4.07,0,0,1,1.73,1.23,4.71,4.71,0,0,1,.55.95,5.3,5.3,0,0,1,.31,1.09h0A0,0,0,0,0,211.32,287.1Z" style="fill:#ebebeb"></path><polygon points="298.27 306.2 286.6 306.2 288.05 295.32 296.82 295.32 298.27 306.2" style="fill:#c7c7c7"></polygon><circle cx="292.44" cy="287.55" r="10.87" transform="matrix(0.15, -0.99, 0.99, 0.15, -35.94, 533.26)" style="fill:#dbdbdb"></circle><circle cx="292.44" cy="287.55" r="8.27" transform="translate(-35.92 533.3) rotate(-81.33)" style="fill:#fff"></circle><path d="M299.35,287.07a7.21,7.21,0,0,0-2.7-5.07,7.3,7.3,0,0,0-5.56-1.45,7,7,0,0,0-4.78,3.1,7.26,7.26,0,0,0-.87,6,6.82,6.82,0,0,0,3.23,4.09,7.19,7.19,0,0,0,5.06.78,7.47,7.47,0,0,0,4.24-2.6,7.88,7.88,0,0,0,1.75-4.61c0-.07,0-.14-.07-.14s-.07.06-.08.14a7.87,7.87,0,0,1-.38,2,8,8,0,0,1-.92,1.8,7.87,7.87,0,0,1-3.07,2.59,6.93,6.93,0,0,1-5.64.14,6.79,6.79,0,0,1-3.83-4.2,7,7,0,0,1,.73-5.79,6.72,6.72,0,0,1,4.65-3.06,7.21,7.21,0,0,1,6.85,2.73,7.9,7.9,0,0,1,.92,1.72,8.23,8.23,0,0,1,.43,1.92s0,0,0,0S299.35,287.1,299.35,287.07Z" style="fill:#ebebeb"></path><path d="M298.38,287.08a6.24,6.24,0,0,0-2.34-4.33,6.37,6.37,0,0,0-4.75-1.26,6,6,0,0,0-4.14,2.64,6.32,6.32,0,0,0-.8,5.16,5.87,5.87,0,0,0,2.8,3.57,6.17,6.17,0,0,0,4.41.66,6.44,6.44,0,0,0,3.68-2.27,6.92,6.92,0,0,0,1.51-4c0-.06,0-.12-.07-.12s-.07.05-.08.12a6.58,6.58,0,0,1-3.77,5.51,5.93,5.93,0,0,1-4.88.14,5.83,5.83,0,0,1-3.31-3.64,6.05,6.05,0,0,1,.66-5,5.72,5.72,0,0,1,4-2.58,6.22,6.22,0,0,1,5.84,2.32,6.29,6.29,0,0,1,.8,1.46,6.89,6.89,0,0,1,.39,1.64s0,0,0,0A.07.07,0,0,0,298.38,287.08Z" style="fill:#ebebeb"></path><path d="M297.41,287.09a5.28,5.28,0,0,0-2-3.59,5.42,5.42,0,0,0-3.94-1.06A5,5,0,0,0,288,284.6a5.37,5.37,0,0,0-.74,4.37,5,5,0,0,0,2.38,3.06,5.28,5.28,0,0,0,3.76.54,5.49,5.49,0,0,0,3.11-2,5.9,5.9,0,0,0,1.27-3.37c0-.06,0-.11-.06-.11a.09.09,0,0,0-.08.1,5.66,5.66,0,0,1-3.18,4.64,5,5,0,0,1-4.12.14,4.85,4.85,0,0,1-2.79-3.08,5.08,5.08,0,0,1,.6-4.19,4.72,4.72,0,0,1,3.36-2.1,5.81,5.81,0,0,1,2.67.31,5,5,0,0,1,2.17,1.6,5.24,5.24,0,0,1,.68,1.2,7.53,7.53,0,0,1,.35,1.36l0,0A.06.06,0,0,0,297.41,287.09Z" style="fill:#ebebeb"></path><path d="M296.44,287.1a4.27,4.27,0,0,0-1.62-2.85,4.45,4.45,0,0,0-3.13-.86,4,4,0,0,0-2.85,1.69,4.39,4.39,0,0,0-.66,3.57,4,4,0,0,0,1.95,2.54,4.35,4.35,0,0,0,3.11.43,4.61,4.61,0,0,0,2.54-1.64,5,5,0,0,0,1-2.76.07.07,0,0,0-.06-.09.08.08,0,0,0-.08.08,4.66,4.66,0,0,1-2.59,3.76,4,4,0,0,1-3.35.16,3.91,3.91,0,0,1-2.27-2.54,4.08,4.08,0,0,1,.54-3.38,3.79,3.79,0,0,1,2.72-1.63,4.85,4.85,0,0,1,2.09.27,4,4,0,0,1,1.73,1.23,4.32,4.32,0,0,1,.56.95,5.3,5.3,0,0,1,.31,1.09h0S296.45,287.11,296.44,287.1Z" style="fill:#ebebeb"></path><rect x="176.69" y="300.66" width="146.61" height="28.04" style="fill:#dbdbdb"></rect><polygon points="206.83 300.66 196.19 328.7 177.25 328.7 187.89 300.66 206.83 300.66" style="fill:#ebebeb"></polygon><polygon points="245.64 300.66 235 328.7 216.06 328.7 226.7 300.66 245.64 300.66" style="fill:#ebebeb"></polygon><polygon points="284.44 300.66 273.81 328.7 254.87 328.7 265.51 300.66 284.44 300.66" style="fill:#ebebeb"></polygon><polygon points="323.26 300.66 312.62 328.7 293.68 328.7 304.32 300.66 323.26 300.66" style="fill:#ebebeb"></polygon><rect x="179.66" y="354.63" width="140.68" height="17.75" style="fill:#dbdbdb"></rect><polygon points="208.57 354.63 198.37 372.37 180.2 372.37 190.41 354.63 208.57 354.63" style="fill:#ebebeb"></polygon><polygon points="245.82 354.63 235.61 372.37 217.43 372.37 227.64 354.63 245.82 354.63" style="fill:#ebebeb"></polygon><polygon points="283.05 354.63 272.84 372.37 254.67 372.37 264.88 354.63 283.05 354.63" style="fill:#ebebeb"></polygon><polygon points="320.29 354.63 310.08 372.37 291.91 372.37 302.12 354.63 320.29 354.63" style="fill:#ebebeb"></polygon><path d="M467.8,167.11H354.62s11.22-30.65,28.49-30.65,22.68,21.15,22.68,21.15,11.65-11.49,21.23-11.49,17.89,15.19,17.89,15.19S458.44,153.14,467.8,167.11Z" style="fill:#ebebeb"></path><path d="M164.47,95.22H111.58S123.39,78.1,132.71,78.1s12.06,11.41,12.06,11.41,6.57-5.32,12.66-4.37S164.47,95.22,164.47,95.22Z" style="fill:#ebebeb"></path><path d="M449.78,218.51H396.89s11.82-17.12,21.13-17.12,12.06,11.41,12.06,11.41,6.57-5.33,12.66-4.37S449.78,218.51,449.78,218.51Z" style="fill:#ebebeb"></path><path d="M135.23,138.13H32.2s14.11-31.5,29.2-33.47,22.31,23.4,22.31,23.4,9.74-9,17.39-9,13.56,11.81,13.56,11.81S130,122.81,135.23,138.13Z" style="fill:#ebebeb"></path></g><g id="freepik--Floor--inject-4"><polygon points="35.91 388.82 88.93 388.58 141.96 388.49 248 388.32 354.05 388.49 407.07 388.58 460.09 388.82 407.07 389.06 354.05 389.15 248 389.32 141.96 389.15 88.93 389.06 35.91 388.82" style="fill:#263238"></polygon></g><g id="freepik--Shadows--inject-4"><ellipse cx="250" cy="443.14" rx="210.09" ry="24.49" style="fill:#ebebeb"></ellipse></g><g id="freepik--error-404--inject-4"><path d="M163.92,135.36a.29.29,0,0,1,.42,0,5.29,5.29,0,0,0,3.14,1.23,3.55,3.55,0,0,0,2.09-.63,1.75,1.75,0,0,0,.82-1.42,1.55,1.55,0,0,0-.77-1.31,6.44,6.44,0,0,0-2.21-.77h0a5.92,5.92,0,0,1-2.25-.81,2,2,0,0,1-1-1.66,2.21,2.21,0,0,1,1-1.78,3.88,3.88,0,0,1,2.3-.7,5.28,5.28,0,0,1,2.94,1.11.29.29,0,0,1,.08.42.29.29,0,0,1-.41.08,4.69,4.69,0,0,0-2.61-1,3.41,3.41,0,0,0-1.95.57,1.66,1.66,0,0,0-.75,1.31,1.37,1.37,0,0,0,.71,1.16,5.5,5.5,0,0,0,2,.72h0a6.69,6.69,0,0,1,2.43.87,2.17,2.17,0,0,1,1,1.8,2.39,2.39,0,0,1-1.08,1.91,4.21,4.21,0,0,1-2.45.75,5.92,5.92,0,0,1-3.52-1.38A.31.31,0,0,1,163.92,135.36Z" style="fill:#263238"></path><path d="M177.62,127.47a4.85,4.85,0,1,1-4.6,4.84A4.7,4.7,0,0,1,177.62,127.47Zm0,9a4.17,4.17,0,0,0,0-8.33,4.17,4.17,0,0,0,0,8.33Z" style="fill:#263238"></path><path d="M189.76,135a1.7,1.7,0,0,0-.78-1.44,3.07,3.07,0,0,0-1.1-.48l-.07,0H185.5v3.77a.34.34,0,0,1-.67,0v-8.88a.34.34,0,0,1,.3-.33h2.72A2.72,2.72,0,0,1,189,132.8l.13.07a2.41,2.41,0,0,1,1.29,2.12,3.7,3.7,0,0,0,.12,1.11.5.5,0,0,0,.13.23.33.33,0,0,1,.15.65.9.9,0,0,1-.16,0h0a.77.77,0,0,1-.61-.44A3.4,3.4,0,0,1,189.76,135Zm-1.91-6.71H185.5v4.11h2.41a2.06,2.06,0,0,0-.06-4.11Z" style="fill:#263238"></path><path d="M198.28,135a1.72,1.72,0,0,0-.78-1.44,3.14,3.14,0,0,0-1.1-.48l-.07,0H194v3.77a.34.34,0,0,1-.67,0v-8.88a.34.34,0,0,1,.3-.33h2.73a2.72,2.72,0,0,1,1.14,5.19l.14.07a2.4,2.4,0,0,1,1.28,2.12,3.7,3.7,0,0,0,.12,1.11.47.47,0,0,0,.14.23.37.37,0,0,1,.37.22.36.36,0,0,1-.22.43,1.09,1.09,0,0,1-.17,0h0a.77.77,0,0,1-.62-.44A3.44,3.44,0,0,1,198.28,135Zm-1.91-6.71H194v4.11h2.41a2.06,2.06,0,0,0,0-4.11Z" style="fill:#263238"></path><path d="M204.32,132.57l-3.2-4.38a.35.35,0,0,1,.07-.46.31.31,0,0,1,.46.06l3,4.1,3-4.1a.32.32,0,0,1,.47-.06.33.33,0,0,1,.07.46L205,132.54v4.28a.33.33,0,0,1-.33.33.33.33,0,0,1-.33-.33Z" style="fill:#263238"></path><path d="M209.78,127.94a.34.34,0,0,1,.67,0v6.84a.34.34,0,1,1-.67,0Zm0,8.55a.34.34,0,0,1,.67,0v.33a.34.34,0,0,1-.67,0Z" style="fill:#263238"></path><path d="M217.45,127.94a.33.33,0,0,1,.33-.33h2.7a2.72,2.72,0,0,1,0,5.44l-2.36,0v3.75a.34.34,0,0,1-.67,0Zm3,4.46a2.09,2.09,0,0,0,2.06-2.07,2.06,2.06,0,0,0-2.06-2.05h-2.36v4.12Z" style="fill:#263238"></path><path d="M229.66,134.68h-4.35l-.84,2.25a.34.34,0,0,1-.31.22l-.13,0a.34.34,0,0,1-.19-.43l3.31-8.85a.37.37,0,0,1,.33-.2.34.34,0,0,1,.33.2l3.31,8.85a.34.34,0,0,1-.18.43l-.12,0a.34.34,0,0,1-.31-.22Zm-4.1-.67h3.85l-1.92-5.12Z" style="fill:#263238"></path><path d="M237.26,132.85a.32.32,0,0,1-.34-.32.34.34,0,0,1,.34-.34h3a.33.33,0,0,1,.29.34v3.32a.37.37,0,0,1-.12.25,4.89,4.89,0,1,1-3.08-8.63,5,5,0,0,1,3.1,1.08.34.34,0,0,1,0,.46.35.35,0,0,1-.48.06,4.15,4.15,0,0,0-2.66-.93,4.17,4.17,0,1,0,2.52,7.52v-2.81Z" style="fill:#263238"></path><path d="M243.89,127.94a.33.33,0,0,1,.33-.33h4.91a.34.34,0,0,1,0,.67h-4.57v3.77h4a.34.34,0,0,1,0,.67h-4v3.76h4.57a.34.34,0,0,1,0,.67h-4.94a.34.34,0,0,1-.3-.33Z" style="fill:#263238"></path><path d="M256.75,129v7.81a.33.33,0,1,1-.65,0v-8.75a.32.32,0,0,1,.58-.28l5.78,8V128a.34.34,0,0,1,.67,0v8.79a.34.34,0,0,1-.34.33.3.3,0,0,1-.26-.13s0,0,0-.05Z" style="fill:#263238"></path><path d="M270.06,127.47a4.85,4.85,0,1,1-4.6,4.84A4.71,4.71,0,0,1,270.06,127.47Zm0,9a4.17,4.17,0,1,0-3.94-4.17A4.06,4.06,0,0,0,270.06,136.48Z" style="fill:#263238"></path><path d="M279.18,128.28H276.3a.34.34,0,0,1,0-.67h6.4a.34.34,0,0,1,0,.67h-2.87v8.54a.33.33,0,0,1-.33.33.32.32,0,0,1-.32-.33Z" style="fill:#263238"></path><path d="M289.62,127.94a.33.33,0,0,1,.31-.33h4.94a.34.34,0,0,1,0,.67h-4.58v3.77h4a.34.34,0,1,1,0,.67h-4v4.1a.34.34,0,0,1-.67,0Z" style="fill:#263238"></path><path d="M301.77,127.47a4.85,4.85,0,1,1-4.6,4.84A4.7,4.7,0,0,1,301.77,127.47Zm0,9a4.17,4.17,0,0,0,0-8.33,4.17,4.17,0,0,0,0,8.33Z" style="fill:#263238"></path><path d="M308.57,127.94a.34.34,0,0,1,.67,0v5.35a3.19,3.19,0,1,0,6.37,0v-5.35a.34.34,0,0,1,.67,0v5.35a3.86,3.86,0,1,1-7.71,0Z" style="fill:#263238"></path><path d="M320.14,129v7.81a.34.34,0,0,1-.33.33.33.33,0,0,1-.33-.33v-8.75a.34.34,0,0,1,.12-.37.36.36,0,0,1,.47.09l5.77,8V128a.34.34,0,0,1,.67,0v8.79a.34.34,0,0,1-.34.33.3.3,0,0,1-.26-.13s0,0-.05-.05Z" style="fill:#263238"></path><path d="M329.62,137.15h-.06a.34.34,0,0,1-.3-.33v-8.88a.33.33,0,0,1,.33-.33h1.78a4.77,4.77,0,1,1,0,9.54Zm1.75-.67a4.1,4.1,0,1,0,0-8.2h-1.44v8.2Z" style="fill:#263238"></path><path d="M214,100.92a5.1,5.1,0,0,1-5.19,5.1h-.92v7a5.1,5.1,0,0,1-10.2,0v-7H168.46a4.53,4.53,0,0,1-3.15-1.12,4.94,4.94,0,0,1-.83-7.13l34.29-42.63c.09,0,.09-.1.18-.19a1.18,1.18,0,0,0,.28-.37.88.88,0,0,0,.46-.28c.1-.09.28-.18.37-.28a1,1,0,0,1,.56-.18c.09-.19.18-.28.37-.28s.28-.09.56-.18a.54.54,0,0,0,.37-.1h1.57a.8.8,0,0,0,.47.1c.09.09.37.09.55.18s.28.09.37.09a5.07,5.07,0,0,0,.47.37c.18.1.27.19.46.28a.09.09,0,0,1,.09.1c.09,0,.28.09.28.18l.37.37c.09.09.19.28.28.37a2.86,2.86,0,0,1,.37.47.69.69,0,0,0,.19.37,3.54,3.54,0,0,1,.18.55c0,.09.09.28.09.37a1,1,0,0,1,.1.56c0,.18.09.28.09.46V95.82h.92A5.16,5.16,0,0,1,214,100.92Zm-16.31-28L179.21,95.82h18.44Z" style="fill:#263238"></path><path d="M226.19,85.72c.09-8.53,2.22-16.22,6.3-22.15,3.89-5.93,9.92-10.29,17.24-10.29,7.13,0,13.25,4.36,17.14,10.29s6.21,13.62,6.21,22.15-2.22,16.22-6.21,22.15-10,10.29-17.14,10.29c-7.32,0-13.35-4.45-17.24-10.29C228.41,101.94,226.28,94.15,226.19,85.72Zm36.6,0a30.83,30.83,0,0,0-4.44-16.5c-2.69-3.89-5.75-5.74-8.62-5.65-2.88-.09-6,1.76-8.81,5.65a30.83,30.83,0,0,0-4.45,16.5,30.44,30.44,0,0,0,4.45,16.4c2.78,4,5.93,5.75,8.81,5.75s5.93-1.76,8.62-5.75S262.79,92.3,262.79,85.72Z" style="fill:#263238"></path><path d="M329.67,100.92a5.11,5.11,0,0,1-5.2,5.1h-.92v7a5.1,5.1,0,0,1-10.2,0v-7H284.16A4.53,4.53,0,0,1,281,104.9a4.94,4.94,0,0,1-.83-7.13l34.29-42.63c.09,0,.09-.1.18-.19a1.18,1.18,0,0,0,.28-.37.88.88,0,0,0,.46-.28c.1-.09.28-.18.37-.28a1,1,0,0,1,.56-.18c.09-.19.18-.28.37-.28s.28-.09.56-.18a.54.54,0,0,0,.37-.1h1.57a.8.8,0,0,0,.47.1c.09.09.37.09.55.18s.28.09.37.09c.19.19.37.28.46.37s.28.19.47.28a.09.09,0,0,1,.09.1c.09,0,.28.09.28.18l.37.37c.09.09.19.28.28.37a2.86,2.86,0,0,1,.37.47.69.69,0,0,0,.19.37,3.54,3.54,0,0,1,.18.55c0,.09.09.28.09.37a1,1,0,0,1,.09.56c0,.18.1.28.1.46V95.82h.92A5.17,5.17,0,0,1,329.67,100.92Zm-16.32-28L294.91,95.82h18.44Z" style="fill:#263238"></path></g><g id="freepik--Lines--inject-4"><path d="M250.16,181.71a.5.5,0,0,1-.5-.5V167.14a.5.5,0,0,1,.5-.5.5.5,0,0,1,.5.5v14.07A.5.5,0,0,1,250.16,181.71Z" style="fill:#263238"></path><path d="M224.7,188.45a.51.51,0,0,1-.44-.25l-7-12.19a.5.5,0,1,1,.86-.5l7,12.19a.49.49,0,0,1-.18.68A.47.47,0,0,1,224.7,188.45Z" style="fill:#263238"></path><path d="M217.38,288.77a.47.47,0,0,1-.25-.07A.49.49,0,0,1,217,288l7-12.18a.5.5,0,1,1,.87.5l-7,12.18A.5.5,0,0,1,217.38,288.77Z" style="fill:#263238"></path><path d="M249.84,297.55a.5.5,0,0,1-.5-.5V283a.5.5,0,0,1,.5-.5.51.51,0,0,1,.5.5v14.07A.5.5,0,0,1,249.84,297.55Z" style="fill:#263238"></path><path d="M282.34,288.93a.5.5,0,0,1-.43-.25l-7-12.18a.5.5,0,1,1,.87-.5l7,12.18a.49.49,0,0,1-.18.68A.47.47,0,0,1,282.34,288.93Z" style="fill:#263238"></path><path d="M275.58,188.61a.47.47,0,0,1-.25-.07.49.49,0,0,1-.18-.68l7-12.19a.5.5,0,0,1,.86.5l-7,12.19A.52.52,0,0,1,275.58,188.61Z" style="fill:#263238"></path></g></svg>